{"title":"BABEL(2006).h263.1080p[)(]Dts-5.1-(US,FR).mkv","uid":15372324,"size":20247925416,"categoryP":"video","categoryS":"movies","magnet":"?xt=urn:btih:af694a2d203f548301cef17612de8dc6134d2772&amp;dn=BABEL%282006%29.h263.1080p%5B%29%28%5DDts-5.1-%28US%2CFR%29.mkv&amp;tr=udp%3A%2F%2Ftracker.leechers-paradise.org%3A6969&amp;tr=udp%3A%2F%2Fzer0day.ch%3A1337&amp;tr=udp%3A%2F%2Fopen.demonii.com%3A1337&amp;tr=udp%3A%2F%2Ftracker.coppersurfer.tk%3A6969&amp;tr=udp%3A%2F%2Fexodus.desync.com%3A6969","seeders":0,"leechers":1,"uploader":"Tyr3ll","files":1,"time":1469150802,"description":"BABEL(2006).h263.1080p[)(]Dts-5.1-(US,FR).mkv\r\n\r\nSee imdb right here : \nhttp://www.imdb.com/title/tt0449467/\r\n\r\nGeneral purpose :\r\nBDrip @ Copy by Master dubbing by Video re-encoding at 15000 kbps to mkv h263-simple pass.\r\n\r\nAudio :\r\nstandard Dts-5.1 in French and US English language\r\n\r\nSub = same\r\n\r\nResult is ok with acceptable quality but some scenes will be quite grainy anyway.\r\n\r\nFinal size : 18,8 GB\r\n\r\n________________________________________________________________________________\r\n\r\n\r\nGeneral\r\nUnique ID                      \r\n\r\nComplete name                  : BABEL(2006).h263.1080p[)(]Dts-5.1-(US,FR).mkv\r\nFormat                         : Matroska\r\nFormat version                 : Version 4 / Version 2\r\nFile size                      : 18.9 GiB\r\nDuration                       : 2 h 23 min\r\nOverall bit rate               : 18.9 Mb/s\r\nMovie name                     : BABEL.Title2\r\nEncoded date                   : UTC 2016-07-04 16:21:17\r\nWriting application            : Lavf57.40.101\r\nWriting library                : Lavf57.40.101 / Lavf57.40.101\r\n\r\nVideo\r\nID                             : 1\r\nFormat                         : H.263\r\nCodec ID                       : V_MS/VFW/FOURCC / H263\r\nDuration                       : 2 h 23 min\r\nBit rate                       : 15.5 Mb/s\r\nWidth                          : 1 920 pixels\r\nHeight                         : 1 080 pixels\r\nDisplay aspect ratio           : 16:9\r\nFrame rate mode                : Constant\r\nFrame rate                     : 23.976 (24000/1001) FPS\r\nBit depth                      : 8 bits\r\nCompression mode               : Lossy\r\nBits/(Pixel*Frame)             : 0.311\r\nStream size                    : 15.5 GiB (82%)\r\nWriting library                : Lavc57.47.100 h263p\r\nLanguage                       : English\r\nDefault                        : Yes\r\nForced                         : No\r\nDURATION                       : 02:23:09.039000000\r\n\r\nAudio #1\r\nID                             : 2\r\nFormat                         : DTS\r\nFormat/Info                    : Digital Theater Systems\r\nMode                           : 16\r\nFormat settings, Endianness    : Big\r\nCodec ID                       : A_DTS\r\nDuration                       : 2 h 23 min\r\nBit rate mode                  : Constant\r\nBit rate                       : 1 509 kb/s\r\nChannel(s)                     : 6 channels\r\nChannel positions              : Front: L C R, Side: L R, LFE\r\nSampling rate                  : 48.0 kHz\r\nFrame rate                     : 93.750 FPS (512 spf)\r\nBit depth                      : 16 bits\r\nCompression mode               : Lossy\r\nStream size                    : 1.51 GiB (8%)\r\nLanguage                       : English\r\nDefault                        : Yes\r\nForced                         : No\r\nDURATION                       : 02:23:09.011000000\r\n\r\nAudio #2\r\nID                             : 3\r\nFormat                         : DTS\r\nFormat/Info                    : Digital Theater Systems\r\nMode                           : 16\r\nFormat settings, Endianness    : Big\r\nCodec ID                       : A_DTS\r\nDuration                       : 2 h 23 min\r\nBit rate mode                  : Constant\r\nBit rate                       : 1 509 kb/s\r\nChannel(s)                     : 6 channels\r\nChannel positions              : Front: L C R, Side: L R, LFE\r\nSampling rate                  : 48.0 kHz\r\nFrame rate                     : 93.750 FPS (512 spf)\r\nBit depth                      : 16 bits\r\nCompression mode               : Lossy\r\nStream size                    : 1.51 GiB (8%)\r\nLanguage                       : French\r\nDefault                        : No\r\nForced                         : No\r\nDURATION                       : 02:23:09.628000000\r\n\r\n...\r\n\r\nMenu\r\nChapters = 63\r\n\r\n\r\nEnjoy and seed, please with me to the others.\r\n\r\nBest regards","torrent":{"xt":"urn:btih:af694a2d203f548301cef17612de8dc6134d2772","amp;dn":"BABEL%282006%29.h263.1080p%5B%29%28%5DDts-5.1-%28US%2CFR%29.mkv","amp;tr":["udp%3A%2F%2Ftracker.leechers-paradise.org%3A6969","udp%3A%2F%2Fzer0day.ch%3A1337","udp%3A%2F%2Fopen.demonii.com%3A1337","udp%3A%2F%2Ftracker.coppersurfer.tk%3A6969","udp%3A%2F%2Fexodus.desync.com%3A6969"],"infoHash":"af694a2d203f548301cef17612de8dc6134d2772","infoHashBuffer":{"type":"Buffer","data":[175,105,74,45,32,63,84,131,1,206,241,118,18,222,141,198,19,77,39,114]},"announce":[],"urlList":[]}}